<?xml version="1.0" encoding="UTF-8" standalone="no"?>
<!-- Created with Inkscape (http://www.inkscape.org/) -->

<svg
   xmlns:dc="http://purl.org/dc/elements/1.1/"
   xmlns:cc="http://creativecommons.org/ns#"
   xmlns:rdf="http://www.w3.org/1999/02/22-rdf-syntax-ns#"
   xmlns:svg="http://www.w3.org/2000/svg"
   xmlns="http://www.w3.org/2000/svg"
   xmlns:sodipodi="http://sodipodi.sourceforge.net/DTD/sodipodi-0.dtd"
   xmlns:inkscape="http://www.inkscape.org/namespaces/inkscape"
   id="svg9798"
   version="1.1"
   inkscape:version="0.91 r13725"
   xml:space="preserve"
   width="744.09497"
   height="1052.3625"
   viewBox="0 0 744.09497 1052.3625"
   sodipodi:docname="paper1.svg"
   inkscape:export-filename="/Users/rodin/Downloads/screenshots/paper1.png"
   inkscape:export-xdpi="90"
   inkscape:export-ydpi="90"><metadata
     id="metadata9804"><rdf:RDF><cc:Work
         rdf:about=""><dc:format>image/svg+xml</dc:format><dc:type
           rdf:resource="http://purl.org/dc/dcmitype/StillImage" /><dc:title></dc:title></cc:Work></rdf:RDF></metadata><defs
     id="defs9802" /><sodipodi:namedview
     pagecolor="#ffffff"
     bordercolor="#666666"
     borderopacity="1"
     objecttolerance="10"
     gridtolerance="10"
     guidetolerance="10"
     inkscape:pageopacity="0"
     inkscape:pageshadow="2"
     inkscape:window-width="1280"
     inkscape:window-height="778"
     id="namedview9800"
     showgrid="false"
     inkscape:zoom="0.89702926"
     inkscape:cx="357.56907"
     inkscape:cy="398.98882"
     inkscape:window-x="0"
     inkscape:window-y="250"
     inkscape:window-maximized="1"
     inkscape:current-layer="g9806" /><g
     id="g9806"
     inkscape:groupmode="layer"
     inkscape:label="animals_furniture"
     transform="matrix(1.25,0,0,-1.25,0,1052.3625)"><rect
       style="opacity:1;fill:#ffffff;fill-opacity:1;stroke:none;stroke-width:5;stroke-miterlimit:4;stroke-dasharray:none;stroke-dashoffset:0;stroke-opacity:1"
       id="rect4796"
       width="595.8656"
       height="841.37244"
       x="0"
       y="-841.37238"
       inkscape:export-xdpi="90"
       inkscape:export-ydpi="90"
       transform="scale(1,-1)" /><text
       transform="matrix(1,0,0,-1,28.346,780.581)"
       style="font-variant:normal;font-weight:normal;font-size:9.16559982px;font-family:Utopia;-inkscape-font-specification:Utopia-Regular;writing-mode:lr-tb;fill:#000000;fill-opacity:1;fill-rule:nonzero;stroke:none"
       id="text9808"><tspan
         x="0 8.5423393 13.326782 16.718054 21.264193 28.880806 33.747738 38.238884 43.096653 47.963585 52.821354"
         y="0"
         sodipodi:role="line"
         id="tspan9810">March2,2018</tspan><tspan
         x="-0.28 5.4118376 10.966191 13.633381 19.691843 22.368198 28.426659 35.273361 40.846046 44.23732 48.948437 54.511955 58.1507 60.81789 66.491394 71.697456 74.850426 80.404778 85.198387 90.413612 95.967964 100.76157 106.82004 112.48438 117.77293 122.98815 128.54251 134.21602 139.69704 144.40816 147.90942 152.67554 157.96408 163.63759 170.41096 175.97449 180.69478 185.40588 191.03357 194.41568 199.13596 203.75542 206.42261 211.13373 220.24434 224.82713 229.53825 232.68205"
         y="11.956"
         sodipodi:role="line"
         id="tspan9812">Thisisapreprintthathasnotundergonepeerreviewyet.</tspan></text>
<g
       id="g9814"
       transform="translate(28.346,761.786)"><path
         d="M 0,0 481.89,0"
         style="fill:none;stroke:#000000;stroke-width:0.398;stroke-linecap:butt;stroke-linejoin:miter;stroke-miterlimit:10;stroke-dasharray:none;stroke-opacity:1"
         id="path9816"
         inkscape:connector-curvature="0" /></g><text
       transform="matrix(1,0,0,-1,28.346,740.924)"
       style="font-variant:normal;font-weight:bold;font-size:15.83819962px;font-family:Utopia;-inkscape-font-specification:Utopia-Bold;writing-mode:lr-tb;fill:#000000;fill-opacity:1;fill-rule:nonzero;stroke:none"
       id="text9818"><tspan
         x="0 9.9622278 18.229769 27.970261 32.864265 42.129612 49.225124 54.229996 64.33477 75.643242 81.487541 91.497284 102.58402 111.83353 118.89737 127.33913 135.93927 146.04404 151.04892 158.69876 167.31474 173.15904 178.16391 187.42926 200.41658 209.66609 217.9653 225.02914 233.23334 248.24794 256.84808 266.95285 272.81299 277.81787 288.50864 303.52325 311.72745 326.74207 336.00742 343.27716 354.44308 360.28738 370.29712 377.1709 386.42041 396.39847 404.8244 417.70084 427.66309 437.76785 444.8317 454.79391 464.55023 472.75443 478.78879"
         y="0"
         sodipodi:role="line"
         id="tspan9820">Exploringtheorganizationofsemanticmemorythroughunsuper-</tspan><tspan
         x="-0.40900001 7.8268638 12.831736 19.895573 28.09976 41.007893 49.623875 59.728645 68.328789 73.222794 81.522011 88.585846 93.590714 103.96474 113.23009 121.97277 130.19279 138.17525 146.37944 156.50005 162.34435 168.55292 175.22079 183.44083 188.31898 196.93497 202.77927 210.9993 223.90742 233.64792 242.91327 248.77341 256.9776 267.08237 272.9425 277.94736 286.54752 291.4415"
         y="21.917999"
         sodipodi:role="line"
         id="tspan9822">visedanalysisofevent-relatedpotentials</tspan></text>
<text
       transform="matrix(1,0,0,-1,28.346,698.007)"
       style="font-variant:normal;font-weight:normal;font-size:9.16559982px;font-family:Utopia;-inkscape-font-specification:Utopia-Regular;writing-mode:lr-tb;fill:#000000;fill-opacity:1;fill-rule:nonzero;stroke:none"
       id="text9824"><tspan
         x="0 8.5423393 13.326782 16.965525 19.632715 22.208248 29.934849 34.499317 39.292927 47.019527 52.830517 55.396885 58.064075 62.775196"
         y="0"
         sodipodi:role="line"
         id="tspan9826">MarijnvanVliet</tspan></text>
<text
       transform="matrix(1,0,0,-1,94.269,701.624)"
       style="font-variant:normal;font-weight:normal;font-size:6.96589994px;font-family:Utopia;-inkscape-font-specification:Utopia-Regular;writing-mode:lr-tb;fill:#000000;fill-opacity:1;fill-rule:nonzero;stroke:none"
       id="text9828"><tspan
         x="0 3.691927 5.5448565 9.236783"
         y="0"
         sodipodi:role="line"
         id="tspan9830">1,2*</tspan></text>
<text
       transform="matrix(1,0,0,-1,106.874,698.007)"
       style="font-variant:normal;font-weight:normal;font-size:9.16559982px;font-family:Utopia;-inkscape-font-specification:Utopia-Regular;writing-mode:lr-tb;fill:#000000;fill-opacity:1;fill-rule:nonzero;stroke:none"
       id="text9832"><tspan
         x="0 4.4911442 13.033484 17.827091 21.209198 27.817596 36.460758 40.961067 46.212955 51.006565 58.742329 65.809006 71.372528 73.929733 76.496101"
         y="0"
         sodipodi:role="line"
         id="tspan9834">,MarcM.VanHulle</tspan></text>
<text
       transform="matrix(1,0,0,-1,188.08,701.624)"
       style="font-variant:normal;font-weight:normal;font-size:6.96589994px;font-family:Utopia;-inkscape-font-specification:Utopia-Regular;writing-mode:lr-tb;fill:#000000;fill-opacity:1;fill-rule:nonzero;stroke:none"
       id="text9836"><tspan
         x="0"
         y="0"
         id="tspan9838">2</tspan></text>
<text
       transform="matrix(1,0,0,-1,192.273,698.007)"
       style="font-variant:normal;font-weight:normal;font-size:9.16559982px;font-family:Utopia;-inkscape-font-specification:Utopia-Regular;writing-mode:lr-tb;fill:#000000;fill-opacity:1;fill-rule:nonzero;stroke:none"
       id="text9840"><tspan
         x="0 4.4911442 9.2847528 14.949094 22.492382 28.395029 31.062218 33.729408 36.882374 40.026176 46.882046 51.675652 56.469261 59.026463 67.486313 72.197433 74.754631 77.430992"
         y="0"
         sodipodi:role="line"
         id="tspan9842">,andRiittaSalmelin</tspan></text>
<text
       transform="matrix(1,0,0,-1,275.371,701.624)"
       style="font-variant:normal;font-weight:normal;font-size:6.96589994px;font-family:Utopia;-inkscape-font-specification:Utopia-Regular;writing-mode:lr-tb;fill:#000000;fill-opacity:1;fill-rule:nonzero;stroke:none"
       id="text9844"><tspan
         x="0"
         y="0"
         id="tspan9846">1</tspan><tspan
         x="-247.211"
         y="21.281"
         id="tspan9848">1</tspan></text>
<text
       transform="matrix(1,0,0,-1,32.353,677.088)"
       style="font-variant:normal;font-weight:normal;font-size:8.24909973px;font-family:Utopia;-inkscape-font-specification:Utopia-Regular;writing-mode:lr-tb;fill:#000000;fill-opacity:1;fill-rule:nonzero;stroke:none"
       id="text9850"><tspan
         x="0 5.2381787 9.5524578 11.853957 14.683398 21.307425 27.502499 32.600445 35.000931 39.117233 43.357269 46.574417 50.162777 52.571514 55.400955 58.882076 62.924133 69.30069 73.540726 78.556183 82.870461 86.1371 88.974792 96.588715 100.82875 105.9267 110.62043 115.38017 119.85942 126.04625 130.28629 135.29349 138.4529 143.21263 146.80923 150.89253 153.30127 157.54131 162.63925 166.7308 172.82689 177.14117 182.23912 189.02812 194.25806 196.65854 201.41827 209.0322 213.27223 218.2052 220.60568 224.69724 229.01152 233.16907 238.13503 243.24121 247.52249 249.93123 255.02917 259.26923 263.50925 266.78415 269.18463 274.29083 278.57211 282.62241 287.62137 291.21799 296.23343 300.99316 305.42291 309.465 314.17523 316.57571 321.67365 323.9834 328.29767 333.39563"
         y="0"
         sodipodi:role="line"
         id="tspan9852">AaltoUniversity,DepartmentofNeuroscienceandBiomedicalEngineering,Espoo,Finland</tspan></text>
<text
       transform="matrix(1,0,0,-1,28.346,669.384)"
       style="font-variant:normal;font-weight:normal;font-size:6.96589994px;font-family:Utopia;-inkscape-font-specification:Utopia-Regular;writing-mode:lr-tb;fill:#000000;fill-opacity:1;fill-rule:nonzero;stroke:none"
       id="text9854"><tspan
         x="0"
         y="0"
         id="tspan9856">2</tspan></text>
<text
       transform="matrix(1,0,0,-1,32.54,666.129)"
       style="font-variant:normal;font-weight:normal;font-size:8.24909973px;font-family:Utopia;-inkscape-font-specification:Utopia-Regular;writing-mode:lr-tb;fill:#000000;fill-opacity:1;fill-rule:nonzero;stroke:none"
       id="text9858"><tspan
         x="0 5.4279079 13.808993 18.494482 22.73452 27.741724 31.858025 36.098061 43.052052 49.03265 55.235973 60.333916 62.734406 66.850708 71.090744 74.307892 77.896248 80.304985 83.13443 89.172768 93.932503 98.411766 103.1055 107.34554 112.34449 116.46079 120.70083 125.80702 129.84909 136.22563 140.46567 145.48112 149.79541 153.06206 155.89973 163.51366 167.75369 172.85164 177.54538 182.30511 186.78438 192.97119 197.21123 202.21844 205.37784 210.13757 213.73418 217.81749 220.22623 224.46626 229.56421 233.65576 237.8958 241.40991 245.45197 250.14571 254.45999 259.3847 264.15268 267.27908 271.59335 274.42282 279.18253 282.54819 288.57828 291.20972 295.96945 301.03439 307.22122 311.46127 316.46848 319.62787 324.3876 329.47729 337.16547 341.91693 345.51355 349.63809 353.72141 358.72861 363.48834 368.49554 373.50275 377.68506 381.27341 383.68213 388.44186 390.74338 395.50311 399.79263 403.27374 407.3158 412.00131 416.24957 421.24854 425.36484 429.60489 434.71106 438.75314 444.02429 448.26434 450.56586 454.85538 457.25586 462.26306"
         y="0"
         sodipodi:role="line"
         id="tspan9860">KULeuven–UniversityofLeuven,DepartmentofNeurosciences,LaboratoryforNeuro-&amp;Psychophysiology,Leuven,Belgium</tspan></text>
<text
       transform="matrix(1,0,0,-1,27.773,658.425)"
       style="font-variant:normal;font-weight:normal;font-size:6.96589994px;font-family:Utopia;-inkscape-font-specification:Utopia-Regular;writing-mode:lr-tb;fill:#000000;fill-opacity:1;fill-rule:nonzero;stroke:none"
       id="text9862"><tspan
         x="0"
         y="0"
         id="tspan9864">*</tspan></text>
<text
       transform="matrix(1,0,0,-1,31.141,655.17)"
       style="font-variant:normal;font-weight:normal;font-size:8.24909973px;font-family:Utopia;-inkscape-font-specification:Utopia-Regular;writing-mode:lr-tb;fill:#000000;fill-opacity:1;fill-rule:nonzero;stroke:none"
       id="text9866"><tspan
         x="0 5.543395 10.303126 13.512026 16.564194 20.80423 24.400837 29.408041 34.16777 39.273964 44.206928 46.607414 51.70536 57.850937 62.165218 67.164169 70.001862 75.000816 79.768799 83.051941 87.547699 93.223076 95.409088 103.02301 105.20902 109.31707 113.63136 118.72929 122.89509 125.19659 127.59708 131.84537 134.6748 141.22459 145.50587 153.1198 157.43407 159.83456 162.13606 164.33032 168.41362 173.17336"
         y="0"
         sodipodi:role="line"
         id="tspan9868">Correspondingauthor:w.m.vanvliet@gmail.com</tspan></text>
<g
       id="g9870"
       transform="translate(28.346,645.05)"><path
         d="M 0,0 481.89,0"
         style="fill:none;stroke:#000000;stroke-width:0.398;stroke-linecap:butt;stroke-linejoin:miter;stroke-miterlimit:10;stroke-dasharray:none;stroke-opacity:1"
         id="path9872"
         inkscape:connector-curvature="0" /></g><text
       transform="matrix(1,0,0,-1,247.85,615.443)"
       style="font-variant:normal;font-weight:bold;font-size:10.99870014px;font-family:Utopia;-inkscape-font-specification:Utopia-Bold;writing-mode:lr-tb;fill:#000000;fill-opacity:1;fill-rule:nonzero;stroke:none"
       id="text9874"><tspan
         x="0 6.9511786 13.605392 18.510813 22.569332 27.40876 33.392052 38.814411"
         y="0"
         sodipodi:role="line"
         id="tspan9876">Abstract</tspan></text>
<text
       transform="matrix(1,0,0,-0.98039216,85.039,601.744)"
       style="font-variant:normal;font-weight:normal;font-size:8.41408157px;font-family:Utopia;-inkscape-font-specification:Utopia-Regular;writing-mode:lr-tb;fill:#000000;fill-opacity:1;fill-rule:nonzero;stroke:none"
       id="text9878"><tspan
         x="0 7.6904712 12.545396 17.577017 21.901855 25.233831 33.042099 40.808296 45.90723 48.263176 51.149204 53.606117 57.796329 62.18848 65.52887 67.977371 72.37793 75.272377 82.197166 89.963364 94.2882 97.174232 102.28158 107.13651 112.16813 118.43661 123.53555 127.93612 132.13475 139.06795 143.39279 148.59268 152.99326 158.02487 160.37241 164.69724 172.32881 175.22325 180.32219 187.2554 191.65596 196.76331 201.87907 204.22659 206.67509 210.84848 215.24904 218.13507 220.592 225.44691 233.25519 238.11011 243.38574 248.49309 253.69299 257.36151 262.46887 267.57623 271.90948 275.33401 279.57471 282.02319 285.69174 290.01657 297.64816 300.5426 304.86743 309.04083 314.13974 319.34805 321.79657 326.76929 331.87665 336.20148 342.46997 345.35599 352.81927 357.21985 362.41974 366.82031"
         y="0"
         sodipodi:role="line"
         id="tspan9880">Modernmultivariatemethodshaveenabledtheapplicationofunsupervisedtechniquestoana-</tspan></text>
<text
       transform="matrix(1,0,0,-0.98619329,85.039,588.045)"
       style="font-variant:normal;font-weight:normal;font-size:8.36458778px;font-family:Utopia;-inkscape-font-specification:Utopia-Regular;writing-mode:lr-tb;fill:#000000;fill-opacity:1;fill-rule:nonzero;stroke:none"
       id="text9882"><tspan
         x="0 2.33372 6.5745659 10.53938 16.678988 21.856667 26.156065 31.23337 34.428642 39.255009 44.340679 49.417984 53.650463 57.297424 59.731518 64.557884 66.899971 71.726334 76.067558 78.510017 82.65049 87.025169 91.207458 96.209488 100.58416 103.45322 109.66811 116.10047 118.53457 121.40362 126.48093 131.3073 136.3846 141.10222 144.74081 147.61824 150.93062 153.37308 157.51355 162.23117 166.60585 171.60788 176.67682 180.98457 184.07111 188.37888 193.54819 197.69702 203.83662 206.71405 213.38063 218.46629 221.56119 225.8606 229.13951 234.14153 238.44093 243.54332 248.71265 253.01204 259.86264 264.16205 268.22723 273.30453 277.60391 280.92468 283.35876 291.07928 295.37866 300.55637 303.42542 307.80008 311.98239 316.12286 320.95758 326.12689 331.12891 333.56302 336.44043 338.87454 343.7009 348.87857 352.35825 356.87512 364.20251"
         y="0"
         sodipodi:role="line"
         id="tspan9884">lyzeneurophysiologicaldatawithoutstrictadherencetopre-defnedexperimentalconditions.We</tspan></text>
<text
       transform="matrix(0.98,0,0,-1,85.039,574.347)"
       style="font-variant:normal;font-weight:normal;font-size:8.24909973px;font-family:Utopia;-inkscape-font-specification:Utopia-Regular;writing-mode:lr-tb;fill:#000000;fill-opacity:1;fill-rule:nonzero;stroke:none"
       id="text9886"><tspan
         x="0 4.9329619 9.1729994 16.786919 21.54665 26.644592 30.241201 33.078892 36.205299 40.519581 43.349022 49.478104 55.673176 63.287094 68.286049 70.595795 73.42524 75.833977 79.933777 84.248055 87.522949 89.923439 94.237717 97.075409 103.19624 110.81016 115.0502 117.88789 122.88684 127.64658 134.46858 137.29802 142.30522 146.61125 151.32974 153.63948 157.87953 161.99582 166.23587 169.36227 173.67654 177.95784 182.19788 187.68352 192.69072 195.96562 198.37436 205.98003 208.38876 213.48671 219.65703 223.89708 226.52853 229.15175 233.39178 237.48334 240.32103 245.79843 248.62787 255.27664 258.87326 263.87222 268.11224 274.93427 277.23575 279.63623 283.92578 288.92471 293.64322 298.41119 305.39819 308.22763 313.23483 319.35565 324.11539 327.27478 331.55609 335.87036 340.97656 343.37704 347.33661 351.65088 354.48859 356.88907 361.6488 368.63577 373.39551"
         y="0"
         sodipodi:role="line"
         id="tspan9888">demonstrateamultivariatemethodthatleveragesprimingeffectstoshedlightontheorganizationof</tspan></text>
<text
       transform="matrix(1,0,0,-0.99403579,85.039,560.648)"
       style="font-variant:normal;font-weight:normal;font-size:8.29859447px;font-family:Utopia;-inkscape-font-specification:Utopia-Regular;writing-mode:lr-tb;fill:#000000;fill-opacity:1;fill-rule:nonzero;stroke:none"
       id="text9890"><tspan
         x="0 7.6596026 11.92508 19.584682 24.372972 27.7505 33.816772 36.878956 41.152729 46.189976 49.260456 53.525936 57.144123 61.409599 66.538132 69.392845 73.733009 76.57943 79.002617 83.790909 88.919441 94.396515 96.811401 103.79882 106.65354 111.68249 117.80685 122.76941 125.91457 130.25475 132.67793 137.80646 142.31259 147.46602 152.49498 158.61934 162.73544 167.76439 171.00084 174.06302 178.32851 183.46533 188.17064 191.78882 194.63524 199.67249 204.63504 210.69302 213.34027 218.12856 222.23636 227.27361 230.8918 235.15727 240.62605 245.42264 252.41005 255.25647 260.29373 266.41809 270.03625 274.30176 281.96133 286.29321 291.43005 294.27646 296.69965 302.66635 305.73682 310.00229 312.3176 316.65778 319.50418 321.92737 326.71567 331.84421 335.4624 340.49963 342.91452 347.96008 353.42883 356.28357 361.3125 365.65268"
         y="0"
         sodipodi:role="line"
         id="tspan9892">memoryrepresentationsinthebrain.Thecurrentstudyfocusesonthesemanticrelationshipsthat</tspan></text>
<text
       transform="matrix(0.98,0,0,-1,85.039,546.949)"
       style="font-variant:normal;font-weight:normal;font-size:8.24909973px;font-family:Utopia;-inkscape-font-specification:Utopia-Regular;writing-mode:lr-tb;fill:#000000;fill-opacity:1;fill-rule:nonzero;stroke:none"
       id="text9894"><tspan
         x="0 5.0154529 7.3169518 11.631231 17.570583 23.64192 27.964449 32.204487 38.13559 41.294994 46.054726 48.356224 54.361568 56.762058 63.625309 66.45475 71.461952 77.459045 82.218781 85.378181 89.65947 93.973747 99.079941 101.48043 105.43999 109.75427 112.59196 114.99245 119.75218 126.61543 131.37517 135.76369 140.52342 145.53062 150.49658 158.1105 162.35054 167.44849 170.28618 174.60045 178.65901 180.96875 185.20879 189.21785 191.61835 195.7099 200.46964 207.32463 212.09261 216.47289 222.81644 227.57617 230.62009 235.55305 240.90672 245.22099 250.31894 257.00897 261.10052 265.86023 270.96643 275.04974 279.28976 284.30524 287.14291 290.56628 295.06207 300.18475 305.18372 311.18906 317.62335 322.00363 326.37564 332.51297 336.59628 341.36426 348.96994 353.98538 358.74512 363.85129 368.09134 373.18927"
         y="0"
         sodipodi:role="line"
         id="tspan9896">playakeyroleintheorganizationofourmentallexiconofwordsandconcepts.TheN400component</tspan></text>
<text
       transform="matrix(0.98,0,0,-1,85.039,533.251)"
       style="font-variant:normal;font-weight:normal;font-size:8.24909973px;font-family:Utopia;-inkscape-font-specification:Utopia-Regular;writing-mode:lr-tb;fill:#000000;fill-opacity:1;fill-rule:nonzero;stroke:none"
       id="text9898"><tspan
         x="0 4.7597308 9.1729994 12.00244 17.009644 23.031487 27.271524 31.387825 35.627861 40.725807 43.563496 46.797146 49.841061 54.089348 56.390846 60.705128 63.534569 67.774605 74.489372 79.504829 84.264557 87.102249 91.342285 96.440231 99.277916 101.67841 105.99268 110.07599 112.47648 117.85489 121.94644 126.70618 131.81236 135.40898 137.80946 142.74243 146.98247 150.02638 154.26642 160.98119 167.07727 170.12119 174.36122 176.66272 179.07146 183.38574 188.31046 190.62021 196.64204 201.73999 205.98828 210.98723 214.14664 218.90637 223.91357 228.92078 233.09482 236.69142 239.10016 243.85989 246.16139 250.92113 255.21066 257.61115 261.7027 266.01697 270.10028 273.1442 277.38425 280.98083 285.99631 290.75604 295.85397 299.45059 305.47241 308.31012 313.30908 317.62335 322.24283 324.64334 330.02173 332.42224 337.52841 342.4614 344.86188 348.95343 353.25946 356.09714 358.49765 362.61395 368.63577 373.39551"
         y="0"
         sodipodi:role="line"
         id="tspan9900">oftheevent-relatedpotentialisconsideredareliableneurophysiologicalresponsethatisindicativeof</tspan></text>
<text
       transform="matrix(0.985,0,0,-1,84.724,519.552)"
       style="font-variant:normal;font-weight:normal;font-size:8.24909973px;font-family:Utopia;-inkscape-font-specification:Utopia-Regular;writing-mode:lr-tb;fill:#000000;fill-opacity:1;fill-rule:nonzero;stroke:none"
       id="text9902"><tspan
         x="0 6.335309 11.342512 15.58255 18.42024 23.419195 27.659233 32.765427 37.079704 41.171257 45.254562 49.494598 53.091209 56.687817 59.088303 64.194496 70.37307 75.132805 80.238998 86.376328 90.46788 95.227608 100.32555 104.41711 108.65714 113.6726 118.39933 121.02254 125.33682 129.42838 131.82887 134.13037 136.53911 139.36855 143.68283 146.52051 150.76056 156.2462 159.8428 164.85002 169.78297 173.37134 177.61961 182.49484 187.49379 191.73383 196.84003 201.56676 205.88104 209.9726 214.05589 218.29593 221.89255 227.38644 230.22414 236.87291 241.18718 246.29338 251.05312 253.88255 258.88974 263.12979 268.23599 271.12317 273.52365 275.71793 279.79297 281.97897 286.06229 290.83026 295.92822 302.06555 305.42291 310.43015 313.70502 316.11377 323.71942 327.96771 331.2261 336.89325 339.72269 344.72989 350.86722 355.62695 358.46463 363.46359 367.70364 370.91254 373.79971"
         y="0"
         sodipodi:role="line"
         id="tspan9904">whetheraccessingoneconceptfacilitatessubsequentaccesstoanother(i.e.,one“primes”theother).</tspan></text>
<text
       transform="matrix(0.991,0,0,-1,84.787,505.854)"
       style="font-variant:normal;font-weight:normal;font-size:8.24909973px;font-family:Utopia;-inkscape-font-specification:Utopia-Regular;writing-mode:lr-tb;fill:#000000;fill-opacity:1;fill-rule:nonzero;stroke:none"
       id="text9906"><tspan
         x="0 4.2895322 10.930058 13.553271 18.560474 21.835367 24.664808 29.672012 33.912048 39.001743 43.761475 48.768681 53.858376 58.85733 63.96352 68.896484 73.13652 76.345421 79.942032 82.771469 87.085747 92.19194 97.116653 99.525391 104.62334 110.79366 115.55339 120.0574 122.89509 127.89404 134.02313 138.78285 141.93402 146.22354 150.53783 155.63577 158.04451 162.00407 166.31836 169.1478 171.55653 176.31627 183.295 188.05473 192.56699 195.39644 200.40364 206.52448 211.53168 216.53062 224.14455 228.45883 235.43756 243.05148 247.29152 252.39771 255.22716 259.54144 263.72372 266.03348 270.2735 274.28256 276.68307 280.77463 285.53433 290.63229 294.70734 300.99316 307.11398 312.12119 315.28061 320.04034 325.05579 329.81552 333.41211 339.53296 342.3624 349.01117 354.01013 356.84781 359.24829 361.5498 363.95853 367.86035"
         y="0"
         sodipodi:role="line"
         id="tspan9908">Tofurtherourunderstandingoftheorganizationofthehumanmentallexicon,weproposetoutilize</tspan></text>
<text
       transform="matrix(1,0,0,-0.98039216,85.039,492.155)"
       style="font-variant:normal;font-weight:normal;font-size:8.41408157px;font-family:Utopia;-inkscape-font-specification:Utopia-Regular;writing-mode:lr-tb;fill:#000000;fill-opacity:1;fill-rule:nonzero;stroke:none"
       id="text9910"><tspan
         x="0 2.8944442 7.9933777 14.278697 20.841681 25.301144 29.769022 36.188965 40.353939 45.217278 52.97506 58.09082 62.945747 68.154068 72.478905 77.678802 82.525314 85.419762 92.226753 97.258377 100.59876 103.04726 107.24589 113.5228 119.88384 124.04881 126.40475 131.50369 135.17223 138.06667 142.39151 145.72348 148.1804 153.38029 159.70769 164.10826 166.45578 170.8311 175.68604 179.02643 181.47491 184.36095 189.46829 199.18657 202.08101 207.17995 211.58051 216.42702 220.592 224.99255 232.15294 237.26028 242.46019 246.63358 251.23607 255.43471 259.75955 262.54459 266.75165 271.12695 273.57547 277.77408 282.09894 289.25931 295.61194 299.28049 303.60532 308.45184 313.31519 317.9429 324.41336 329.26828 332.38147 337.41312 340.9975 345.21295 351.67496 356.78232 359.2308 363.40421"
         y="0"
         sodipodi:role="line"
         id="tspan9912">theN400componenttodriveaclusteringalgorithmthatcanuncover,givenasetofwords,which</tspan></text>
<text
       transform="matrix(0.98,0,0,-1,85.039,478.456)"
       style="font-variant:normal;font-weight:normal;font-size:8.24909973px;font-family:Utopia;-inkscape-font-specification:Utopia-Regular;writing-mode:lr-tb;fill:#000000;fill-opacity:1;fill-rule:nonzero;stroke:none"
       id="text9914"><tspan
         x="0 5.0154529 9.3214827 12.596375 15.434066 17.834555 21.926107 26.925062 29.23481 33.54084 38.589291 42.185898 47.184853 52.117813 55.35146 58.948067 63.188107 66.025795 71.453705 76.213432 80.676201 87.011505 91.77124 94.815155 99.748116 105.17603 108.77264 113.77984 118.28384 126.45045 134.06438 139.07158 141.90102 146.90822 151.2225 155.3553 160.37076 163.64565 166.04613 173.66005 176.06055 181.15848 185.44801 189.96852 194.23331 199.23227 203.32382 210.16232 216.29965 219.89626 223.98781 228.99501 233.23505 240.84073 246.9203 249.96423 254.20427 259.0795 264.0867 266.48718 269.5311 273.77112 279.19904 285.3446 288.39679 292.63681 294.93832 297.33881 301.65308 306.58606 308.88754 314.96713 322.57281 326.82111 331.12714 334.72372 339.73093 342.77484 347.01489 354.62881 358.86884 363.9668 368.63577 373.39551"
         y="0"
         sodipodi:role="line"
         id="tspan9916">particularsub-setsofwordsshowmutualpriming.Suchaschemerequiresareliablemeasurementof</tspan></text>
<text
       transform="matrix(0.98,0,0,-1,85.039,464.758)"
       style="font-variant:normal;font-weight:normal;font-size:8.24909973px;font-family:Utopia;-inkscape-font-specification:Utopia-Regular;writing-mode:lr-tb;fill:#000000;fill-opacity:1;fill-rule:nonzero;stroke:none"
       id="text9918"><tspan
         x="0 2.8376904 7.8366451 13.858488 18.164518 25.778437 30.79389 33.09539 35.495876 38.333569 43.332523 48.265484 54.287327 59.047058 63.452076 66.281517 71.288719 77.302315 83.744865 88.11689 92.488907 98.642738 102.73429 107.49402 115.10794 120.11514 124.88313 129.98106 134.2211 139.3273 143.9303 150.27385 152.67435 155.51204 160.51099 165.27072 170.27792 174.88918 179.20345 183.31149 187.55978 190.6862 194.99223 199.28175 201.68225 206.78844 212.85153 217.1658 221.24911 224.40852 229.16824 232.76486 238.13503 245.74893 250.06322 255.16116 261.117 263.94644 267.22134 269.6301 273.93613 276.24585 279.75998 283.74429 290.07959 295.08679 297.4873 301.57886 308.35962 314.69492 319.00919 324.37936 329.38657 333.62659 336.67053 342.69235 346.99838 351.08994 356.09714 358.49765 362.73767 366.85397 371.09402"
         y="0"
         sodipodi:role="line"
         id="tspan9920">theamplitudeoftheN400componentwithoutaveragingacrossmanytrials,whichwashereachieved</tspan></text>
<text
       transform="matrix(1,0,0,-0.99009901,85.039,451.059)"
       style="font-variant:normal;font-weight:normal;font-size:8.33159065px;font-family:Utopia;-inkscape-font-specification:Utopia-Regular;writing-mode:lr-tb;fill:#000000;fill-opacity:1;fill-rule:nonzero;stroke:none"
       id="text9922"><tspan
         x="0 5.0572758 8.6815176 11.114343 16.263266 22.461969 28.677336 31.760025 36.042461 40.174931 44.457371 49.606293 52.472359 54.796875 60.887268 65.86956 70.151993 74.309464 78.591896 80.916412 85.72374 90.789345 95.071785 101.92035 109.61041 114.65936 116.98387 119.84994 122.27443 126.42356 130.78099 134.08862 136.51312 140.87054 143.72827 149.87698 154.23441 159.38333 163.74075 166.07361 170.28938 173.92197 176.34645 181.84531 189.53537 193.81779 196.67554 201.73282 206.54015 213.3887 218.371 222.72842 226.35266 230.64343 237.48367 242.291 249.31453 254.29681 258.57925 262.93668 270.61841 273.27618 278.08353 281.39114 289.07288 291.50571 296.65463 300.98706 305.52777 312.82623 318.97498 323.11575 327.47318 329.80603 332.23053 337.2128 341.57025 344.42798 348.71042 355.55899 360.3663 365.42358"
         y="0"
         sodipodi:role="line"
         id="tspan9924">usingarecentlydevelopedmultivariateanalysismethodbasedonbeamforming.Wevalidatedour</tspan></text>
<text
       transform="matrix(0.992,0,0,-1,85.039,437.36)"
       style="font-variant:normal;font-weight:normal;font-size:8.24909973px;font-family:Utopia;-inkscape-font-specification:Utopia-Regular;writing-mode:lr-tb;fill:#000000;fill-opacity:1;fill-rule:nonzero;stroke:none"
       id="text9926"><tspan
         x="0 7.6139193 11.853957 14.683398 19.690601 24.450333 31.25584 35.974323 42.020916 46.953876 51.193916 58.807835 63.567566 68.673759 72.270363 75.099808 78.226212 82.540497 85.378181 87.778671 92.876617 99.038696 101.86813 106.87534 111.18137 115.88335 118.29209 122.99408 127.07738 131.39166 138.36215 141.41432 145.65436 147.95586 150.35634 154.67062 159.60359 161.90509 167.95993 172.88464 177.12468 179.96237 184.20241 188.29396 191.1234 195.18196 201.52551 203.92599 206.75545 211.76265 216.52237 221.52959 226.23157 230.5376 235.64378 241.69038 246.70584 249.97247 252.38121 257.14093 262.22238 264.62286 269.72083 272.35229 277.11203 280.3869 288.00082 292.30685 295.14456 297.54504 302.30478 309.27527 313.58954 318.52249 323.28223 328.28943 332.99142 335.82086 340.82806 346.94064 352.0386 356.35287 359.18231 364.18951 367.23343"
         y="0"
         sodipodi:role="line"
         id="tspan9928">methodbydemonstratingthatitcanreliablydetect,withoutanypriorinformationaboutthenature</tspan></text>
<text
       transform="matrix(1,0,0,-0.98039216,85.039,423.662)"
       style="font-variant:normal;font-weight:normal;font-size:8.41408157px;font-family:Utopia;-inkscape-font-specification:Utopia-Regular;writing-mode:lr-tb;fill:#000000;fill-opacity:1;fill-rule:nonzero;stroke:none"
       id="text9930"><tspan
         x="0 4.8549252 9.7435074 12.629537 17.736885 24.266212 27.934752 30.820782 33.269279 41.035477 46.142826 48.490356 50.938854 55.46563 62.062267 68.482216 72.807053 75.154579 77.502106 80.808846 85.217819 90.417725 95.020226 101.49065 108.89505 111.57914 115.90398 120.30454 123.19057 128.29793 131.41113 137.94046 142.79538 147.67555 150.56999 155.66893 162.19826 167.0616 170.27577 174.65109 179.05167 184.25157 186.70006 190.74724 195.1478 198.03383 200.48233 205.34567 212.75006 217.605 222.49358 227.3485 232.44743 237.925 241.59354 245.91838 253.68457 258.08514 263.28503 266.17947 268.62799 275.00586 282.77206 287.09689 294.8631 299.71802 303.14255 307.48422 312.71777 315.60379 320.71115 327.24048 332.27209 334.72058 338.38913 341.27518 343.73209 348.93198 353.10538 355.99139 358.4483 363.30322"
         y="0"
         sodipodi:role="line"
         id="tspan9932">ofthestimuli,awell-knownfeatureoftheorganizationofoursemanticmemory:thedistinction</tspan></text>
<text
       transform="matrix(0.989,0,0,-1,85.039,409.963)"
       style="font-variant:normal;font-weight:normal;font-size:8.24909973px;font-family:Utopia;-inkscape-font-specification:Utopia-Regular;writing-mode:lr-tb;fill:#000000;fill-opacity:1;fill-rule:nonzero;stroke:none"
       id="text9934"><tspan
         x="0 4.9329619 9.1729994 12.00244 18.288254 22.528292 26.776579 33.763565 38.069595 43.175789 45.576279 53.190197 57.504475 60.333916 66.462997 70.777275 75.875221 82.697227 85.097717 90.195656 94.509941 99.616135 102.01662 109.63054 113.94482 116.77426 122.90334 126.98665 131.75462 136.85257 140.94412 145.18416 150.19136 153.02905 156.46068 161.00594 166.12038 171.12758 175.36761 178.96422 185.08505 188.13722 192.37726 195.97386 200.97282 203.28258 206.11201 211.58942 219.20334 223.96306 226.80075 229.20125 233.3093 237.62358 240.45302 246.58209 249.20531 254.21251 257.4874 260.31683 265.32407 269.56409 274.65378 278.96808 283.98352 288.99072 291.30048 293.70096 297.79251 302.10678 304.93622 307.33673 312.10471 319.09167 323.85141 328.36368 333.12341 338.12234 343.22031 350.83423 355.07425 357.90369 362.91092 367.67062"
         y="0"
         sodipodi:role="line"
         id="tspan9936">betweenanimateandinanimateconcepts.Theseresultsmotivatefurtherapplicationofourmethod</tspan></text>
<text
       transform="matrix(1,0,0,-1,85.039,396.265)"
       style="font-variant:normal;font-weight:normal;font-size:8.24909973px;font-family:Utopia;-inkscape-font-specification:Utopia-Regular;writing-mode:lr-tb;fill:#000000;fill-opacity:1;fill-rule:nonzero;stroke:none"
       id="text9938"><tspan
         x="0 2.8376904 9.4534683 14.386431 18.692461 21.530151 25.844431 29.078077 34.01104 37.285931 39.68642 43.802719 48.042759 54.99675 59.245037 63.24585 68.261299 70.562805 75.33078 78.457191 82.771469 85.600914 88.001396 92.769379 99.723373 104.4831 108.97061 113.90357 116.30406 119.90067 124.90788 129.91507 132.74452 136.98456 143.77356 148.53329 153.60649 158.60544 163.71164 168.03416 173.13211 177.64436 183.97968 190.94193 193.98584 198.22588 200.53561 204.8499 207.67934 210.07983 214.84781 219.94576 223.54236 228.54132 230.95006 235.95726 241.40991 246.34288 250.58292 253.42061 259.70642 263.94644 268.18649 275.14047 278.73709 281.57477 283.97528 291.58917 296.58813 298.89789 301.29837"
         y="0"
         sodipodi:role="line"
         id="tspan9940">todata-drivenexplorationofdisputedorunknownrelationshipsbetweenstimuli.</tspan></text>
<text
       transform="matrix(1,0,0,-1,85.039,374.676)"
       style="font-style:italic;font-variant:normal;font-size:8.24909973px;font-family:Utopia;-inkscape-font-specification:Utopia-Italic;writing-mode:lr-tb;fill:#000000;fill-opacity:1;fill-rule:nonzero;stroke:none"
       id="text9942"><tspan
         x="0 5.2629256 8.9997683 12.868596 19.344139 23.773907 26.875568 31.717789 34.926689"
         y="0"
         sodipodi:role="line"
         id="tspan9944">Keywords:</tspan></text>
<text
       transform="matrix(1,0,0,-1,124.455,374.676)"
       style="font-variant:normal;font-weight:normal;font-size:8.24909973px;font-family:Utopia;-inkscape-font-specification:Utopia-Regular;writing-mode:lr-tb;fill:#000000;fill-opacity:1;fill-rule:nonzero;stroke:none"
       id="text9946"><tspan
         x="0 4.2400374 8.3563385 12.596375 17.702568 20.532009 23.773907 26.817823 31.057861 33.367611 37.673641 40.51133 44.751366 51.540379 56.547581 61.315559 64.145004 68.38504 73.491234 76.320671 78.721161 83.035439 85.345192 89.387245 94.3862 99.393402 105.44824 109.4903 115.9246 120.30487 124.6769 129.05717 133.09923 136.69583 140.93587 148.54979 152.85582 157.96202 160.79146 163.2002 169.13954 173.23109 175.53259 180.53981 184.13641 186.96585 191.20589 194.48079 196.88127 201.98746 206.26875 210.31905 213.36298 217.60301 221.91728 226.85025 229.25073 234.35693"
         y="0"
         sodipodi:role="line"
         id="tspan9948">event-relatedpotential,EEG,N400,semanticclustering,reading</tspan></text>
<text
       transform="matrix(1,0,0,-1,17.252,345.058)"
       style="font-variant:normal;font-weight:normal;font-size:10.99870014px;font-family:Utopia;-inkscape-font-specification:Utopia-Regular;writing-mode:lr-tb;fill:#000000;fill-opacity:1;fill-rule:nonzero;stroke:none"
       id="text9950"><tspan
         x="0"
         y="0"
         id="tspan9952">1</tspan></text>
<text
       transform="matrix(1,0,0,-1,28.346,345.058)"
       style="font-variant:normal;font-weight:bold;font-size:9.16559982px;font-family:Utopia;-inkscape-font-specification:Utopia-Bold;writing-mode:lr-tb;fill:#000000;fill-opacity:1;fill-rule:nonzero;stroke:none"
       id="text9954"><tspan
         x="0 3.345444 9.1930971 12.584369 16.562239 21.914949 27.469303 33.234467 37.762272 41.144379 44.040707 49.402584"
         y="0"
         sodipodi:role="line"
         id="tspan9956">Introduction</tspan></text>
<text
       transform="matrix(1,0,0,-0.98039216,28.346,324.136)"
       style="font-variant:normal;font-weight:normal;font-size:9.34891224px;font-family:Utopia;-inkscape-font-specification:Utopia-Regular;writing-mode:lr-tb;fill:#000000;fill-opacity:1;fill-rule:nonzero;stroke:none"
       id="text9958"><tspan
         x="0 4.9549232 9.7602644 18.389311 23.269442 29.056419 32.263096 34.992977 41.967266 47.651405 51.353573 54.083454 62.703152 65.433037 71.210663 78.409325 83.224014 87.75824 93.442375 98.247719 101.95924 104.67977 113.30882 118.11415 123.89178 127.10781"
         y="0"
         sodipodi:role="line"
         id="tspan9960">Semanticprimingexperiments</tspan></text>
<text
       transform="matrix(1,0,0,-1,160.126,327.753)"
       style="font-variant:normal;font-weight:normal;font-size:6.96589994px;font-family:Utopia;-inkscape-font-specification:Utopia-Regular;writing-mode:lr-tb;fill:#000000;fill-opacity:1;fill-rule:nonzero;stroke:none"
       id="text9962"><tspan
         x="0"
         y="0"
         id="tspan9964">1</tspan></text>
<text
       transform="matrix(1,0,0,-0.98039216,166.663,324.136)"
       style="font-variant:normal;font-weight:normal;font-size:9.34891224px;font-family:Utopia;-inkscape-font-specification:Utopia-Regular;writing-mode:lr-tb;fill:#000000;fill-opacity:1;fill-rule:nonzero;stroke:none"
       id="text9966"><tspan
         x="0 5.6747894 10.554922 15.220029 22.371946 25.831043 30.636385 35.301491 40.106831 44.996315 47.61401 52.41935 60.347225 63.563251 69.228691 74.118172 79.671425 84.560905 89.197968 93.825684 98.640373 102.70715 106.78327 109.51315 115.29078 122.48945 129.72551 136.90547 142.30914 145.76823 153.69611 156.41664 164.5502 169.94452 175.60997 181.59326 190.22231 195.02765 200.81464 204.0213 208.91078 213.86571 216.47406 221.2794 225.82297 228.55286 233.18056 238.57489"
         y="0"
         sodipodi:role="line"
         id="tspan9968">haverevealedthataccessingawordinourmentallexicon</tspan></text>
<text
       transform="matrix(1,0,0,-1,425.01,327.753)"
       style="font-variant:normal;font-weight:normal;font-size:6.96589994px;font-family:Utopia;-inkscape-font-specification:Utopia-Regular;writing-mode:lr-tb;fill:#000000;fill-opacity:1;fill-rule:nonzero;stroke:none"
       id="text9970"><tspan
         x="0"
         y="0"
         id="tspan9972">1</tspan></text>
<text
       transform="matrix(1,0,0,-1,432.915,324.136)"
       style="font-variant:normal;font-weight:normal;font-size:7.33249998px;font-family:Utopia;-inkscape-font-specification:Utopia-Regular;writing-mode:lr-tb;fill:#000066;fill-opacity:1;fill-rule:nonzero;stroke:none"
       id="text9974"><tspan
         x="0 6.6945724 10.331492 15.830868 19.665766 26.426331 30.261227 33.047577 38.524956 42.359852 46.89867 52.933319 58.557346 62.788197 64.833961 69.218803 72.027145 76.258003 80.488853 84.331085"
         y="0"
         sodipodi:role="line"
         id="tspan9976">McNamaraandHolbrook,</tspan><tspan
         x="87.924011 91.817566 95.703789 99.597351"
         y="0"
         sodipodi:role="line"
         id="tspan9978">2003</tspan><tspan
         x="103.48357 107.0765 112.57587 116.34478 120.12102 122.16679 125.87703"
         y="0"
         sodipodi:role="line"
         id="tspan9980">;Neely,</tspan><tspan
         x="-7.915 -4.0287752 -0.1352175 3.7510076"
         y="11.831"
         sodipodi:role="line"
         id="tspan9982">1991</tspan></text>
<text
       transform="matrix(1,0,0,-0.98522167,28.346,309.192)"
       style="font-variant:normal;font-weight:normal;font-size:9.30308437px;font-family:Utopia;-inkscape-font-specification:Utopia-Regular;writing-mode:lr-tb;fill:#000000;fill-opacity:1;fill-rule:nonzero;stroke:none"
       id="text9984"><tspan
         x="0 2.9676838 7.8238935 12.438223 15.145421 17.750284 20.457481 23.648439 28.513952 31.714212 36.495998 42.617428 45.575809 51.222782 54.413738 60.060711 63.493549 70.340614 75.206131 79.820457 84.425484 89.216576 93.26342 99.38485 102.58511 110.01827 114.06511 118.8562 127.43365 132.29916 138.05777 141.24872 143.95592 148.57025 153.43576 156.03133 158.63618 165.40883 168.85097 173.63277 176.22832 181.09383 184.2941 189.07588 196.6951 203.84918 209.21706 212.65919 218.22244 222.09253 227.12549 231.9817 234.6889 240.44751 245.05254 251.89961 259.05368 264.42157 267.86371 273.42694 279.53906 285.18604 289.24219 294.87985 299.74536 302.34091 304.9458 311.71844 317.0863 321.70065 326.31497 331.95264 337.63684 340.34402 348.16791 355.08942 357.69427 363.06216 367.89044 370.60696 375.21198 380.07748"
         y="0"
         sodipodi:role="line"
         id="tspan9986">facilitatesfutureaccesstosemanticallyrelatedwords.Sincewordsusuallyoccurinalogical</tspan></text>
<text
       transform="matrix(1,0,0,-0.98039216,28.346,294.248)"
       style="font-variant:normal;font-weight:normal;font-size:9.34891224px;font-family:Utopia;-inkscape-font-specification:Utopia-Regular;writing-mode:lr-tb;fill:#000000;fill-opacity:1;fill-rule:nonzero;stroke:none"
       id="text9988"><tspan
         x="0 4.0761256 8.8814669 14.406673 20.081463 24.886805 30.664431 35.301491 39.929203 44.51952 47.735546 53.400986 56.130867 62.310497 66.124855 71.80899 75.511162 78.241043 86.870087 89.590622 95.368248 100.0614 106.43736 112.02802 116.83335 122.50814 127.39762 132.10948 134.83 140.23367 145.97391 148.94687 153.83635 158.4734 161.19394 163.80229 166.53217 169.73885 174.62833 177.83501 182.64969 188.81998 192.036 197.70145 204.61964 210.29443 213.87506 219.26938 223.90645 228.71178 232.7879 236.86403 239.58456 245.3622 252.32713 257.72147 262.80725 265.41562 268.13614 273.03497 277.8403 280.45801 287.29205 291.92914 297.32346 303.11041 306.31711 309.03763 314.82462 320.49005 325.37955 328.59555 331.3161 336.71042 342.49741 348.67703 354.07135 359.1478 366.14078 370.21692 375.02225 380.80923"
         y="0"
         sodipodi:role="line"
         id="tspan9990">sequence,this“priming”behaviorfacilitatestheprocessingoflikelycontinuationsofasen-</tspan></text>
<text
       transform="matrix(0.98,0,0,-1,28.346,279.304)"
       style="font-variant:normal;font-weight:normal;font-size:9.16559982px;font-family:Utopia;-inkscape-font-specification:Utopia-Regular;writing-mode:lr-tb;fill:#000000;fill-opacity:1;fill-rule:nonzero;stroke:none"
       id="text9992"><tspan
         x="0 3.1529665 7.8640847 13.528425 18.074564 24.847942 30.145658 35.773338 39.769539 42.913338 48.211056 51.950623"
         y="0"
         sodipodi:role="line"
         id="tspan9994">tenceorstory</tspan></text>
<text
       transform="matrix(1,0,0,-1,84.402,282.921)"
       style="font-variant:normal;font-weight:normal;font-size:6.96589994px;font-family:Utopia;-inkscape-font-specification:Utopia-Regular;writing-mode:lr-tb;fill:#000000;fill-opacity:1;fill-rule:nonzero;stroke:none"
       id="text9996"><tspan
         x="0"
         y="0"
         id="tspan9998">2</tspan></text>
<text
       transform="matrix(0.98,0,0,-1,90.62,279.304)"
       style="font-variant:normal;font-weight:normal;font-size:9.16559982px;font-family:Utopia;-inkscape-font-specification:Utopia-Regular;writing-mode:lr-tb;fill:#000000;fill-opacity:1;fill-rule:nonzero;stroke:none"
       id="text10000"><tspan
         x="0 4.7936087 10.45795 18.010405 21.154205 26.717724 31.428843 34.810947 39.522068 44.76479 51.47401 56.020145 61.308697 66.982208 70.126007 73.764748 76.431938 81.912964 87.476486 90.620285 95.331406 101.38987 104.54283 111.90281 117.19136 122.74571 128.38255 133.17616 138.6572 141.32439 143.88159 146.54878 149.70175 156.41096 159.55476 166.91475 171.62585 175.97035 180.50732 186.07085 190.86446 196.52879 201.29491 208.06828 216.52814 221.23926 225.23546 229.23166 234.02527 238.78221 243.5025 249.56096 256.60013 259.27649 262.42029 270.04608 275.33463 278.48758 284.04193 288.75305 292.32764 298.38611 303.17972 308.39493 313.94931 316.61649 321.3826"
         y="0"
         sodipodi:role="line"
         id="tspan10002">andtherebycontributestoourabilitytoexchangemessageswithothersathigh</tspan></text>
<text
       transform="matrix(1,0,0,-1,425.197,282.921)"
       style="font-variant:normal;font-weight:normal;font-size:6.96589994px;font-family:Utopia;-inkscape-font-specification:Utopia-Regular;writing-mode:lr-tb;fill:#000000;fill-opacity:1;fill-rule:nonzero;stroke:none"
       id="text10004"><tspan
         x="0"
         y="0"
         id="tspan10006">2</tspan></text>
<text
       transform="matrix(1,0,0,-1,433.102,279.304)"
       style="font-variant:normal;font-weight:normal;font-size:7.33249998px;font-family:Utopia;-inkscape-font-specification:Utopia-Regular;writing-mode:lr-tb;fill:#000066;fill-opacity:1;fill-rule:nonzero;stroke:none"
       id="text10008"><tspan
         x="0 5.4993749 9.26828 13.037185 15.090285 18.800529"
         y="0"
         sodipodi:role="line"
         id="tspan10010">Neely,</tspan><tspan
         x="22.393456 26.287012 30.173237 34.066795"
         y="0"
         sodipodi:role="line"
         id="tspan10012">1976</tspan></text>
<text
       transform="matrix(1,0,0,-1,28.346,264.36)"
       style="font-variant:normal;font-weight:normal;font-size:9.16559982px;font-family:Utopia;-inkscape-font-specification:Utopia-Regular;writing-mode:lr-tb;fill:#000000;fill-opacity:1;fill-rule:nonzero;stroke:none"
       id="text10014"><tspan
         x="0 3.9962015 9.5688868 14.280005 18.991123 24.472153"
         y="0"
         sodipodi:role="line"
         id="tspan10016">speed.</tspan></text>
<text
       transform="matrix(0.98,0,0,-1,28.066,243.439)"
       style="font-variant:normal;font-weight:normal;font-size:9.16559982px;font-family:Utopia;-inkscape-font-specification:Utopia-Regular;writing-mode:lr-tb;fill:#000000;fill-opacity:1;fill-rule:nonzero;stroke:none"
       id="text10018"><tspan
         x="0 5.6918378 11.246191 17.964577 21.960777 26.671896 35.131744 39.925354 45.589695 48.742661 51.409851 57.95409 63.526775 67.16552 69.832703 78.292557 80.959747 86.633255 93.397461 98.108582 101.03241 103.94707 108.65819 113.20432 118.35539 123.91891 128.70335 134.70682 140.18785 144.89897 149.61009 157.28169 162.84521 167.55634 170.11354 175.68622 178.60088 184.1644 188.72887 191.64352 196.94125 202.50476 206.50096 209.65393 215.20828 220.68932 225.33627 228.00346 233.6678 240.44118 243.58499 249.1485 255.86688 261.15543 264.65671 269.42282 274.21643 279.88077 282.54794 286.9566 291.75021 294.89401 297.56122 302.85892 310.53052 315.81909 320.741 326.30453 331.85889 340.31873 345.11234 352.78394 356.78015 361.49127 369.95111 374.74472 380.40906 383.56204 386.22922"
         y="0"
         sodipodi:role="line"
         id="tspan10020">Thesemanticprimingeffecthasbeenhelpfulforstudyingtheorganizationofhumansemantic</tspan></text>
<text
       transform="matrix(1,0,0,-0.98039216,28.346,228.495)"
       style="font-variant:normal;font-weight:normal;font-size:9.34891224px;font-family:Utopia;-inkscape-font-specification:Utopia-Regular;writing-mode:lr-tb;fill:#000000;fill-opacity:1;fill-rule:nonzero;stroke:none"
       id="text10022"><tspan
         x="0 8.6290455 13.434386 22.063433 27.457754 31.262762 36.002659"
         y="0"
         sodipodi:role="line"
         id="tspan10024">memory.</tspan></text>
<text
       transform="matrix(1,0,0,-1,66.229,232.111)"
       style="font-variant:normal;font-weight:normal;font-size:6.96589994px;font-family:Utopia;-inkscape-font-specification:Utopia-Regular;writing-mode:lr-tb;fill:#000000;fill-opacity:1;fill-rule:nonzero;stroke:none"
       id="text10026"><tspan
         x="0"
         y="0"
         id="tspan10028">3</tspan></text>
<text
       transform="matrix(1,0,0,-0.98039216,73.202,228.495)"
       style="font-variant:normal;font-weight:normal;font-size:9.34891224px;font-family:Utopia;-inkscape-font-specification:Utopia-Regular;writing-mode:lr-tb;fill:#000000;fill-opacity:1;fill-rule:nonzero;stroke:none"
       id="text10030"><tspan
         x="0 5.0951571 10.489479 16.267107 21.072447 25.616018 30.505501 39.134544 44.809334 47.427032 52.054741 56.682453 59.898479 65.563919 72.510162 77.315506 81.85907 86.748558 91.376266 96.723846 102.51082 107.4003 110.60698 116.28177 119.74087 126.67776 132.07208 137.18593 140.40196 146.0674 153.01364 156.47273 161.27808 163.88643 168.77591 171.98259 174.71246 180.1068 185.88441 189.96054 195.63533 198.35587 204.04001 210.24768 213.46371 219.12915 224.01863 229.36621 233.99391 238.88339 244.55818 248.63431 253.43965 259.64734 265.04166 270.82864 277.76553 284.95483 290.34915 293.80826 301.53046 304.74649 312.27237 317.95648 321.66803 324.38855 333.01761"
         y="0"
         sodipodi:role="line"
         id="tspan10032">Forexample,theexactnatureoftherelationshipsthatcausesonewordtoprime</tspan></text>
<text
       transform="matrix(1,0,0,-1,425.197,232.111)"
       style="font-variant:normal;font-weight:normal;font-size:6.96589994px;font-family:Utopia;-inkscape-font-specification:Utopia-Regular;writing-mode:lr-tb;fill:#000000;fill-opacity:1;fill-rule:nonzero;stroke:none"
       id="text10034"><tspan
         x="0"
         y="0"
         id="tspan10036">3</tspan></text>
<text
       transform="matrix(1,0,0,-1,431.452,228.495)"
       style="font-variant:normal;font-weight:normal;font-size:7.33249998px;font-family:Utopia;-inkscape-font-specification:Utopia-Regular;writing-mode:lr-tb;fill:#000066;fill-opacity:1;fill-rule:nonzero;stroke:none"
       id="text10038"><tspan
         x="0 3.6295874 5.5727 9.3782673 13.37448 18.30192 22.532772 24.578541 26.631639 28.765398 33.296883 38.143665 41.978561 46.51738 52.544697 56.716888 60.947739 63.279476 65.801857 70.245354 73.442322"
         y="0"
         sodipodi:role="line"
         id="tspan10040">e.g.CollinsandLoftus,</tspan><tspan
         x="77.04258 80.928802 84.815025 88.708588"
         y="0"
         sodipodi:role="line"
         id="tspan10042">1975</tspan><tspan
         x="92.59481 96.195068 100.70455 105.14805 107.67043 111.50533 116.34478 120.17967 124.71849"
         y="0"
         sodipodi:role="line"
         id="tspan10044">;Kutasand</tspan><tspan
         x="-6.2550001 -2.2587874 1.5101175 5.8949523 9.6638575 12.567528 19.335424 23.10433 25.24542 29.014324 31.866667"
         y="11.831"
         sodipodi:role="line"
         id="tspan10046">Federmeier,</tspan><tspan
         x="35.459591 39.353149 43.239376 47.125599"
         y="11.831"
         sodipodi:role="line"
         id="tspan10048">2000</tspan></text>
<text
       transform="matrix(1,0,0,-0.98039216,28.346,213.551)"
       style="font-variant:normal;font-weight:normal;font-size:9.34891224px;font-family:Utopia;-inkscape-font-specification:Utopia-Regular;writing-mode:lr-tb;fill:#000000;fill-opacity:1;fill-rule:nonzero;stroke:none"
       id="text10050"><tspan
         x="0 4.8894811 10.667109 16.07078 19.277456 24.952246 29.757587 36.432709 43.612675 49.006996 52.466095 61.095139 65.732201 71.126526 76.904152 80.120178 82.840706 88.627686 94.293129 99.098465 106.21299 109.41966 117.86173 123.44303 131.28677 134.50279 140.16824 148.01198 150.99428 156.3886 161.02567 166.6911 173.80562 179.19995 185.22064 188.67039 193.48508 197.55186 202.36655 207.24669 210.70578 215.34283 221.01762"
         y="0"
         sodipodi:role="line"
         id="tspan10052">anotherwordcontinuestobethefocusofresearch.</tspan></text>
<text
       transform="matrix(1,0,0,-1,251.241,217.167)"
       style="font-variant:normal;font-weight:normal;font-size:6.96589994px;font-family:Utopia;-inkscape-font-specification:Utopia-Regular;writing-mode:lr-tb;fill:#000000;fill-opacity:1;fill-rule:nonzero;stroke:none"
       id="text10054"><tspan
         x="0"
         y="0"
         id="tspan10056">4</tspan></text>
<text
       transform="matrix(1,0,0,-0.98039216,260.92,213.551)"
       style="font-variant:normal;font-weight:normal;font-size:9.34891224px;font-family:Utopia;-inkscape-font-specification:Utopia-Regular;writing-mode:lr-tb;fill:#000000;fill-opacity:1;fill-rule:nonzero;stroke:none"
       id="text10058"><tspan
         x="0 3.0944898 11.910514 15.126539 20.791981 23.512514 30.627035 36.311172 41.200657 46.875446 51.680786 54.775276 60.534206 67.658073 75.501816 81.092461 85.897804 94.526848 99.921173 105.70815 109.78427 112.99095 116.54353 121.42367 124.63969 132.48343 138.14888 143.27208"
         y="0"
         sodipodi:role="line"
         id="tspan10060">Inthispaper,wedemonstratehow</tspan></text>
<text
       transform="matrix(1,0,0,-1,425.01,205.987)"
       style="font-variant:normal;font-weight:normal;font-size:6.96589994px;font-family:Utopia;-inkscape-font-specification:Utopia-Regular;writing-mode:lr-tb;fill:#000000;fill-opacity:1;fill-rule:nonzero;stroke:none"
       id="text10062"><tspan
         x="0"
         y="0"
         id="tspan10064">4</tspan></text>
<text
       transform="matrix(0.98,0,0,-1,431.266,202.37)"
       style="font-variant:normal;font-weight:normal;font-size:7.33249998px;font-family:Utopia;-inkscape-font-specification:Utopia-Regular;writing-mode:lr-tb;fill:#000000;fill-opacity:1;fill-rule:nonzero;stroke:none"
       id="text10066"><tspan
         x="0 3.6222551 5.5653677 9.3782673 13.411142 19.079165 24.534546 30.195234 33.964142 37.681717 42.213203 45.989441 49.611694 55.111069 58.945969 62.590221 66.425117 69.277458 72.085808 76.316658 79.946251 83.773811 88.31263 94.37661 98.548798 102.3177 105.22871 107.56777 111.79863 114.65097 117.84794"
         y="0"
         sodipodi:role="line"
         id="tspan10068">e.g.DeDeyne,Navarro,andPerfors,</tspan><tspan
         x="121.47752 125.36375 129.25731 133.14354"
         y="0"
         sodipodi:role="line"
         id="tspan10070">2016</tspan><tspan
         x="137.03709"
         y="0"
         id="tspan10072">;</tspan></text>
<text
       transform="matrix(1,0,0,-1,425.197,190.539)"
       style="font-variant:normal;font-weight:normal;font-size:7.33249998px;font-family:Utopia;-inkscape-font-specification:Utopia-Regular;writing-mode:lr-tb;fill:#000066;fill-opacity:1;fill-rule:nonzero;stroke:none"
       id="text10074"><tspan
         x="0 5.01543 8.6083546 13.43314 17.026066 21.234921 25.062485 31.251116 35.430641 39.199547 41.714592 44.236973 48.005878 52.537361"
         y="0"
         sodipodi:role="line"
         id="tspan10076">C.K.VanPetten,</tspan><tspan
         x="56.130287 60.023846 63.910069 67.803627"
         y="0"
         sodipodi:role="line"
         id="tspan10078">1993</tspan></text>
<text
       transform="matrix(1,0,0,-0.99700897,28.346,198.607)"
       style="font-variant:normal;font-weight:normal;font-size:9.19309711px;font-family:Utopia;-inkscape-font-specification:Utopia-Regular;writing-mode:lr-tb;fill:#000000;fill-opacity:1;fill-rule:nonzero;stroke:none"
       id="text10080"><tspan
         x="0 5.5802097 11.261543 15.269733 20.84075 26.430153 31.155405 34.906189 39.539509 42.214699 46.222889 50.948143 58.495674 61.648907 66.383354 70.933937 76.514145 82.19548 84.870667 90.312981 95.884003 100.60925 104.53471 109.02094 113.02912 118.60014 123.15992 130.78099 135.58899 141.63805 147.21825 149.89345 154.6187 158.11208 162.92006 166.31232 170.87209 176.4431 179.12749 183.67807 188.48607 193.101 197.66078 200.22565 205.80586 209.81404 212.96729 217.69254 221.34219 224.01738 229.70792 234.47913 238.97455 243.77335 247.17479 253.9501 260.79895 266.38837 271.19635 274.84601 277.99924 280.67444 285.23422 290.81442 293.3793 298.18729 301.7634 304.32828 311.03003 316.61026 320.61844 325.34369 328.26709 333.84732 338.46225 341.62466 346.92908 352.23349 356.84845 359.52362 367.25504 370.41745 375.98846 378.67285"
         y="0"
         sodipodi:role="line"
         id="tspan10082">unsupervisedtechniques,suchashierarchicalclustering,areaparticularlyusefultoolinthis</tspan></text>
<text
       transform="matrix(1,0,0,-0.99502488,28.346,183.663)"
       style="font-variant:normal;font-weight:normal;font-size:9.21142769px;font-family:Utopia;-inkscape-font-specification:Utopia-Regular;writing-mode:lr-tb;fill:#000000;fill-opacity:1;fill-rule:nonzero;stroke:none"
       id="text10084"><tspan
         x="0 4.5688682 9.386445 13.393416 20.18224 24.999815 30.701689 38.255062 43.763493 48.498169 53.094669 57.829346 60.408546 65.723541 73.369026 80.240746 85.933411 90.677299 99.805824 102.96534 107.70923 112.26888 117.86022 123.55289 126.24262 131.68657 137.26871 144.05753 147.22626 154.5954 158.61157 161.7711 167.36244 172.87086 179.586 182.74551 188.33685 195.12569 200.44067 203.96864 208.74937 213.56696 219.26883 221.94936 226.37085 231.18842 234.35715 237.03767 242.35268 250.09949 255.42369 260.40707 264.42325 269.15793 277.66006 282.47766 288.17032 291.32983 294.01956 300.63336 309.13553 313.87021 322.37234 327.68735 331.44559 338.16074 343.66916 348.48676 352.50293 357.23761 364.79099 370.11517 377.862"
         y="0"
         sodipodi:role="line"
         id="tspan10086">caseanddevelopanewtechniquetostudytheorganizationofsemanticmemorybasedona</tspan></text>
<text
       transform="matrix(1,0,0,-1,28.346,168.719)"
       style="font-variant:normal;font-weight:normal;font-size:9.16559982px;font-family:Utopia;-inkscape-font-specification:Utopia-Regular;writing-mode:lr-tb;fill:#000000;fill-opacity:1;fill-rule:nonzero;stroke:none"
       id="text10088"><tspan
         x="0 5.6735063 10.384624 15.938978 19.421906 24.20635 28.834978 33.371948 38.669666 42.235085 45.617191 50.328308 52.894676 57.688286 60.832088 67.605469 72.89402 77.880104 81.023903 86.587425 93.360802 97.357002 102.06812 110.52797 115.32158 120.98592 124.13889 126.80608 133.4053 138.978 142.61673 145.28392 153.74377 156.41096 162.08447 168.90367 173.61479 176.53862 179.45328 184.17357 188.71054 191.86351"
         y="0"
         sodipodi:role="line"
         id="tspan10090">neuralcorrelateofthesemanticprimingeffect.</tspan></text>
<text
       transform="matrix(1,0,0,-0.98039216,28.066,147.797)"
       style="font-variant:normal;font-weight:normal;font-size:9.34891224px;font-family:Utopia;-inkscape-font-specification:Utopia-Regular;writing-mode:lr-tb;fill:#000000;fill-opacity:1;fill-rule:nonzero;stroke:none"
       id="text10092"><tspan
         x="0 5.8056746 11.471115 18.641731 24.23238 29.626701 35.021023 39.097149 44.669102 47.389633 55.532536 59.608662 62.329197 67.190628 72.968262 77.857742 80.466087 84.140205 87.346886 92.741203 96.415329 102.19296 107.58728 110.31716 114.39329 121.55455 125.10714 129.99663 133.20329 135.92383 143.68343"
         y="0"
         sodipodi:role="line"
         id="tspan10094">Theboostinsignal-to-noiseratio(</tspan></text>
<text
       transform="matrix(1,0,0,-0.98039216,175.27,147.797)"
       style="font-variant:normal;font-weight:normal;font-size:7.47914982px;font-family:Utopia;-inkscape-font-specification:Utopia-Regular;writing-mode:lr-tb;fill:#000000;fill-opacity:1;fill-rule:nonzero;stroke:none"
       id="text10096"><tspan
         x="0 4.5548024 10.897121"
         y="0"
         sodipodi:role="line"
         id="tspan10098">SNR</tspan></text>
<text
       transform="matrix(1,0,0,-0.98039216,191.239,147.797)"
       style="font-variant:normal;font-weight:normal;font-size:9.34891224px;font-family:Utopia;-inkscape-font-specification:Utopia-Regular;writing-mode:lr-tb;fill:#000000;fill-opacity:1;fill-rule:nonzero;stroke:none"
       id="text10100"><tspan
         x="0 5.6280451 11.312183 14.892817 20.006672 24.727873 27.448406 33.039055 37.844395 45.79097 51.147896 58.243721 66.872765 72.547554 75.155907 78.371933 81.092461 85.748222 90.637703 94.339874 97.060402 101.94988 105.16591 112.32718 117.91782 122.8073 126.02333 133.26874 138.15822 143.93585 148.82533 151.43367 156.17357 160.24969 162.97023"
         y="0"
         sodipodi:role="line"
         id="tspan10102">)providedbymultivariatedataanalysis</tspan></text>
<text
       transform="matrix(1,0,0,-1,358.882,151.414)"
       style="font-variant:normal;font-weight:normal;font-size:6.96589994px;font-family:Utopia;-inkscape-font-specification:Utopia-Regular;writing-mode:lr-tb;fill:#000000;fill-opacity:1;fill-rule:nonzero;stroke:none"
       id="text10104"><tspan
         x="0"
         y="0"
         id="tspan10106">5</tspan></text>
<text
       transform="matrix(1,0,0,-0.98039216,365.435,147.797)"
       style="font-variant:normal;font-weight:normal;font-size:9.34891224px;font-family:Utopia;-inkscape-font-specification:Utopia-Regular;writing-mode:lr-tb;fill:#000000;fill-opacity:1;fill-rule:nonzero;stroke:none"
       id="text10108"><tspan
         x="0 4.8053408 10.592318 15.472449 21.063099 23.680794 28.486135 34.918186 39.807667"
         y="0"
         sodipodi:role="line"
         id="tspan10110">enablesan</tspan></text>
<text
       transform="matrix(1,0,0,-1,425.197,151.414)"
       style="font-variant:normal;font-weight:normal;font-size:6.96589994px;font-family:Utopia;-inkscape-font-specification:Utopia-Regular;writing-mode:lr-tb;fill:#000000;fill-opacity:1;fill-rule:nonzero;stroke:none"
       id="text10112"><tspan
         x="0"
         y="0"
         id="tspan10114">5</tspan></text>
<text
       transform="matrix(0.98,0,0,-1,432.955,147.797)"
       style="font-variant:normal;font-weight:normal;font-size:7.33249998px;font-family:Utopia;-inkscape-font-specification:Utopia-Regular;writing-mode:lr-tb;fill:#000000;fill-opacity:1;fill-rule:nonzero;stroke:none"
       id="text10116"><tspan
         x="0 4.1135325 7.0172024 9.1582928 12.355263 14.87031 19.101162 25.25313 29.022036 33.157566 36.992462 39.045563 40.988674"
         y="0"
         sodipodi:role="line"
         id="tspan10118">Fristonetal.,</tspan><tspan
         x="44.559601 48.453159 52.339386 56.232941"
         y="0"
         sodipodi:role="line"
         id="tspan10120">1996</tspan><tspan
         x="60.119167 63.704762 69.1968 73.427658 76.338661 83.106552 86.941452 91.472939 95.051201 99.223389 103.45424 105.50001 109.21759 113.74907 117.32733 122.99535 126.76426 129.27931 131.985 135.76123"
         y="0"
         sodipodi:role="line"
         id="tspan10122">;Norman,Polyn,Detre,</tspan></text>
<text
       transform="matrix(1,0,0,-1,425.197,135.967)"
       style="font-variant:normal;font-weight:normal;font-size:7.33249998px;font-family:Utopia;-inkscape-font-specification:Utopia-Regular;writing-mode:lr-tb;fill:#000066;fill-opacity:1;fill-rule:nonzero;stroke:none"
       id="text10124"><tspan
         x="0 3.8348975 8.3663826 14.40103 20.076385 23.911282 27.474878 31.676399 35.386646"
         y="0"
         sodipodi:role="line"
         id="tspan10126">andHaxby,</tspan><tspan
         x="38.979568 42.873127 46.759354 50.652908"
         y="0"
         sodipodi:role="line"
         id="tspan10128">2006</tspan></text>
<text
       transform="matrix(1,0,0,-0.98039216,28.346,132.853)"
       style="font-variant:normal;font-weight:normal;font-size:9.34891224px;font-family:Utopia;-inkscape-font-specification:Utopia-Regular;writing-mode:lr-tb;fill:#000000;fill-opacity:1;fill-rule:nonzero;stroke:none"
       id="text10130"><tspan
         x="0 4.8053408 9.2367249 13.873785 16.594318 19.810345 22.530878 28.317854 35.245399 40.920189 45.809669 49.362255 54.251736 59.842384 62.56292 67.415001 78.119507 82.195633 87.861076 90.590958 93.563911 98.846046 101.57593 109.42902 115.09445 120.21766 129.47308 135.26006 140.0654 149.32082 152.04135 157.82834 161.90446 164.62498 169.47708 175.15187 178.35854 184.51013 193.13918 198.02866 204.83466 210.42531 217.30611 222.70044 228.29108 231.49776 236.38724 239.10777 244.89474 249.70009 257.36621 260.33914 263.9198 269.31412 280.01862 285.79623 290.60159 296.27637 299.84766 305.25131 310.92612 316.60089 321.33145 325.40759 328.12811 333.5318 336.14014 341.53445 346.39587 349.11642 353.75348 358.63361 363.32678 368.90808 373.79755 377.01358 381.90305"
         y="0"
         sodipodi:role="line"
         id="tspan10132">excitingparadigmshiftinhownewinsightsmaybeobtainedfromneurophysiologicaldata.</tspan></text>
<text
       transform="matrix(0.99,0,0,-1,27.917,117.909)"
       style="font-variant:normal;font-weight:normal;font-size:9.16559982px;font-family:Utopia;-inkscape-font-specification:Utopia-Regular;writing-mode:lr-tb;fill:#000000;fill-opacity:1;fill-rule:nonzero;stroke:none"
       id="text10134"><tspan
         x="0 8.6156635 14.179183 18.890301 26.6444 29.7882 35.351719"
         y="0"
         sodipodi:role="line"
         id="tspan10136">Whenthe</tspan></text>
<text
       transform="matrix(0.99,0,0,-1,69.894,117.909)"
       style="font-variant:normal;font-weight:normal;font-size:7.33249998px;font-family:Utopia;-inkscape-font-specification:Utopia-Regular;writing-mode:lr-tb;fill:#000000;fill-opacity:1;fill-rule:nonzero;stroke:none"
       id="text10138"><tspan
         x="0 4.4654927 10.683453"
         y="0"
         sodipodi:role="line"
         id="tspan10140">SNR</tspan></text>
<text
       transform="matrix(0.99,0,0,-1,87.452,117.909)"
       style="font-variant:normal;font-weight:normal;font-size:9.16559982px;font-family:Utopia;-inkscape-font-specification:Utopia-Regular;writing-mode:lr-tb;fill:#000000;fill-opacity:1;fill-rule:nonzero;stroke:none"
       id="text10142"><tspan
         x="0 2.6671896 8.7531481 14.307502 16.983856 21.740803 29.384914 34.096031 39.769539 45.05809 50.621609 55.378555 60.942074 65.460716 72.334915 75.717018 80.437309 84.424339 89.144623 93.92907 97.320343 101.85732 107.42083 112.13195 117.78712 122.3241 127.11771 134.87181 139.66541 145.2381 150.80162 154.31204 159.60059 164.3942 168.94034 176.58444 179.72826 185.29176 192.08348 197.56451 202.35812 205.51108 212.38528 217.17889 222.84323 227.63684 230.19405 234.841 238.8372 241.50439 247.59035 250.25754 258.01163 262.80524 270.55936 276.12286 281.7872 285.78342 291.33777 296.91046 301.62155 305.36111 309.98059 312.65695 316.64398 321.36426"
         y="0"
         sodipodi:role="line"
         id="tspan10144">ishighenough,aresearchercanapproachthedataanalysisinanunsupervised</tspan></text>
<text
       transform="matrix(1,0,0,-0.98039216,28.346,102.965)"
       style="font-variant:normal;font-weight:normal;font-size:9.34891224px;font-family:Utopia;-inkscape-font-specification:Utopia-Regular;writing-mode:lr-tb;fill:#000000;fill-opacity:1;fill-rule:nonzero;stroke:none"
       id="text10146"><tspan
         x="0 8.6290455 13.518527 19.296154 25.083132 29.888472 32.973614 37.965931 40.695812 46.473442 50.549568 53.756245 58.561584 63.451065 71.463081 76.857407 82.261078 84.869423 89.758904 95.349556 100.15489 102.76324 105.49313 111.27075 118.55355 124.1442 129.02434 132.24036 139.55121 144.44069 149.06841 153.70546 159.09978 162.55888 168.14954 170.87007 176.65704 183.9305 187.14651 194.9622 199.03833 204.43266 213.06171 220.28841 225.97255 229.43166 234.23698 239.82764 244.63298 247.83966 252.645 256.35651 264.98557 267.70609 273.49307 278.2984 286.31042 291.89172 294.62161 299.33347 302.05399 306.13013 308.86002 314.25433 322.45334 325.72543 330.35315 332.83063 337.69205 340.16953 345.16183 352.35114 357.74545 361.20456 366.79523 373.28336 378.00455 381.90305"
         y="0"
         sodipodi:role="line"
         id="tspan10148">manner,insteadoflabelingdataaccordingtosomepredetermineddivision(e.g.,wordsvs.</tspan></text>
<text
       transform="matrix(1,0,0,-0.98039216,28.346,88.022)"
       style="font-variant:normal;font-weight:normal;font-size:9.34891224px;font-family:Utopia;-inkscape-font-specification:Utopia-Regular;writing-mode:lr-tb;fill:#000000;fill-opacity:1;fill-rule:nonzero;stroke:none"
       id="text10150"><tspan
         x="0 5.6841383 9.7602644 14.565605 20.231045 25.821695 30.935551 38.124863 43.519184 46.978283 52.568932 59.057076 64.460747 70.518845 73.725517 79.119843 84.514168 87.131859 93.629356 98.341202 102.2397 108.34454 113.019 117.82434 122.67642 127.48177 130.69778 135.58727 141.16856 143.78627 148.59161 152.66774 155.93985 162.05405 170.54285 176.21764 178.82599 182.03267 184.76254 189.4183 194.29843 198.00995 200.73048 205.61996 208.836 216.0627 220.94284 226.72981 231.61929 234.22765 238.96754 243.04367 245.76421 252.26169 255.71144 260.52612 266.10742 271.78223 276.41928 281.22461 287.71277 290.9288 296.59424 303.82095 309.60791 314.41327 319.2186 327.23062 330.20358 335.60724 341.66534 346.54547 351.21057 356.02527 359.56851 364.45798 369.31006 372.03995 377.81757"
         y="0"
         sodipodi:role="line"
         id="tspan10152">pseudowordsortoolsvs.vegetables).Multivariateanalysisreducestheneedforaveraging</tspan></text>
<text
       transform="matrix(1,0,0,-0.99009901,28.346,73.078)"
       style="font-variant:normal;font-weight:normal;font-size:9.25725555px;font-family:Utopia;-inkscape-font-specification:Utopia-Regular;writing-mode:lr-tb;fill:#000000;fill-opacity:1;fill-rule:nonzero;stroke:none"
       id="text10154"><tspan
         x="0 4.8415451 9.4331436 12.969416 18.310852 22.347015 28.456804 31.6413 35.307175 38.010292 42.842579 45.434612 49.378204 53.914257 57.089497 62.708652 68.31855 74.428337 77.372147 82.213692 86.80529 89.499153 92.091179 94.785042 97.960281 102.80183 105.98632 108.68018 114.40117 121.28857 124.47306 130.08296 136.91481 141.72859 146.48682 152.20781 156.9753 160.4838 165.32533 168.50058 171.20369 176.54514 184.33974 189.68118 194.70787 198.74403 204.35393 207.30699 212.95392 217.53625 220.23938 224.9976 230.7186 233.90309 236.48586 243.25291 251.7881 256.62964 262.35989 269.11768 274.65353 279.49509 282.67032 289.58548 295.2139 300.55533 303.24921 308.97943 312.15466 318.26447 321.21753 326.55896 332.23367 334.81644 339.58392 344.4162 348.09134 353.82159 356.51544 362.23642 369.12384 372.29907 377.91821"
         y="0"
         sodipodi:role="line"
         id="tspan10156">acrosstrials,thusfacilitatingthegenerationofsuffcientlymanydatapointsforlearningthe</tspan></text>
<text
       transform="matrix(1,0,0,-1,390.553,40.978)"
       style="font-variant:normal;font-weight:normal;font-size:9.16559982px;font-family:Utopia;-inkscape-font-specification:Utopia-Regular;writing-mode:lr-tb;fill:#000000;fill-opacity:1;fill-rule:nonzero;stroke:none"
       id="text10158"><tspan
         x="0 5.5726848 10.357128 15.12324 21.896618 28.825811 34.114365 39.091286 43.958218"
         y="0"
         sodipodi:role="line"
         id="tspan10160">page1of14</tspan></text>
<ellipse
       style="opacity:1;fill:none;fill-opacity:1;stroke:#ff0000;stroke-width:4;stroke-miterlimit:4;stroke-dasharray:none;stroke-dashoffset:0;stroke-opacity:1"
       id="path10944"
       cx="149.82788"
       cy="-771.43518"
       transform="scale(1,-1)"
       rx="140.01773"
       ry="14.269322" /><text
       xml:space="preserve"
       style="font-style:normal;font-weight:normal;font-size:20px;line-height:125%;font-family:sans-serif;letter-spacing:0px;word-spacing:0px;fill:#ff0000;fill-opacity:1;stroke:none;stroke-width:1px;stroke-linecap:butt;stroke-linejoin:miter;stroke-opacity:1;"
       x="159.63805"
       y="-799.08203"
       id="text10946"
       sodipodi:linespacing="125%"
       transform="scale(1,-1)"><tspan
         sodipodi:role="line"
         id="tspan10948"
         x="159.63805"
         y="-799.08203">Mark publication status</tspan></text>
<rect
       style="opacity:1;fill:none;fill-opacity:1;stroke:#ff0000;stroke-width:4;stroke-miterlimit:4;stroke-dasharray:none;stroke-dashoffset:0;stroke-opacity:1"
       id="rect10952"
       width="490.50797"
       height="62.428291"
       x="23.187649"
       y="-711.68243"
       transform="scale(1,-1)"
       ry="13.37749" /><text
       xml:space="preserve"
       style="font-style:normal;font-weight:normal;font-size:20px;line-height:125%;font-family:sans-serif;letter-spacing:0px;word-spacing:0px;fill:#ff0000;fill-opacity:1;stroke:none;stroke-width:1px;stroke-linecap:butt;stroke-linejoin:miter;stroke-opacity:1"
       x="21.403986"
       y="-627.11542"
       id="text10954"
       sodipodi:linespacing="125%"
       transform="scale(1,-1)"><tspan
         sodipodi:role="line"
         x="21.403986"
         y="-627.11542"
         id="tspan10958">Properly formatted author list</tspan></text>
<ellipse
       style="opacity:1;fill:none;fill-opacity:1;stroke:#ff0000;stroke-width:4;stroke-miterlimit:4;stroke-dasharray:none;stroke-dashoffset:0;stroke-opacity:1"
       id="path10962"
       cx="224.74182"
       cy="-376.79929"
       transform="scale(1,-1)"
       rx="165.88087"
       ry="12.039741" /><text
       xml:space="preserve"
       style="font-style:normal;font-weight:normal;font-size:30px;line-height:125%;font-family:sans-serif;letter-spacing:0px;word-spacing:0px;fill:#ff0000;fill-opacity:1;stroke:none;stroke-width:1px;stroke-linecap:butt;stroke-linejoin:miter;stroke-opacity:1"
       x="393.29822"
       y="-365.65134"
       id="text10964"
       sodipodi:linespacing="125%"
       transform="scale(1,-1)"><tspan
         sodipodi:role="line"
         id="tspan10966"
         x="393.29822"
         y="-365.65134"
         style="font-size:20px;fill:#ff0000;fill-opacity:1">keywords</tspan></text>
<ellipse
       style="opacity:1;fill:none;fill-opacity:1;stroke:#ff0000;stroke-width:3.99999976;stroke-miterlimit:4;stroke-dasharray:none;stroke-dashoffset:0;stroke-opacity:1"
       id="path10968"
       transform="scale(1,-1)"
       ry="13.823406"
       rx="12.931574"
       cy="-234.99788"
       cx="66.441528" /><text
       xml:space="preserve"
       style="font-style:normal;font-weight:normal;font-size:30px;line-height:125%;font-family:sans-serif;letter-spacing:0px;word-spacing:0px;fill:#ff4a4a;fill-opacity:1;stroke:none;stroke-width:1px;stroke-linecap:butt;stroke-linejoin:miter;stroke-opacity:1"
       x="72.973083"
       y="-256.29681"
       id="text10970"
       sodipodi:linespacing="125%"
       transform="scale(1,-1)"><tspan
         sodipodi:role="line"
         id="tspan10972"
         x="72.973083"
         y="-256.29681"
         style="font-size:20px;fill:#ff4a4a;fill-opacity:1">numbered citations in the text...</tspan></text>
<rect
       style="opacity:1;fill:none;fill-opacity:1;stroke:#ff0000;stroke-width:4;stroke-miterlimit:4;stroke-dasharray:none;stroke-dashoffset:0;stroke-opacity:1"
       id="rect10974"
       width="164.98904"
       height="207.79698"
       x="413.81033"
       y="-336.22086"
       transform="scale(1,-1)"
       ry="17.836653" /><text
       xml:space="preserve"
       style="font-style:normal;font-weight:normal;font-size:20px;line-height:125%;font-family:sans-serif;letter-spacing:0px;word-spacing:0px;fill:#ff0000;fill-opacity:1;stroke:none;stroke-width:1px;stroke-linecap:butt;stroke-linejoin:miter;stroke-opacity:1"
       x="441.28534"
       y="-106.8627"
       id="text10976"
       sodipodi:linespacing="125%"
       transform="scale(1,-1)"><tspan
         sodipodi:role="line"
         id="tspan10978"
         x="441.28534"
         y="-106.8627">...refer to full</tspan><tspan
         sodipodi:role="line"
         x="441.28534"
         y="-81.862701"
         id="tspan10982">citations in the</tspan><tspan
         sodipodi:role="line"
         x="441.28534"
         y="-56.862701"
         id="tspan10986">margin</tspan></text>
<ellipse
       style="opacity:1;fill:none;fill-opacity:1;stroke:#ff0000;stroke-width:4;stroke-miterlimit:4;stroke-dasharray:none;stroke-dashoffset:0;stroke-opacity:1"
       id="path10988"
       transform="scale(1,-1)"
       cx="78.481277"
       cy="-121.28918"
       rx="18.728487"
       ry="12.485658" /><text
       xml:space="preserve"
       style="font-style:normal;font-weight:normal;font-size:30px;line-height:125%;font-family:sans-serif;letter-spacing:0px;word-spacing:0px;fill:#ff0000;fill-opacity:1;stroke:none;stroke-width:1px;stroke-linecap:butt;stroke-linejoin:miter;stroke-opacity:1"
       x="31.214128"
       y="-43.69978"
       id="text10990"
       sodipodi:linespacing="125%"
       transform="scale(1,-1)"><tspan
         sodipodi:role="line"
         id="tspan10992"
         x="31.214128"
         y="-43.69978"
         style="font-size:20px;fill:#ff0000;fill-opacity:1">acronyms in smallcaps</tspan></text>
<path
       style="fill:#ff0000;fill-opacity:1;fill-rule:evenodd;stroke:#ff0000;stroke-width:2.4000001;stroke-linecap:butt;stroke-linejoin:miter;stroke-miterlimit:4;stroke-dasharray:none;stroke-opacity:1"
       d="M 73.527287,107.98749 69.165942,57.893306"
       id="path10994"
       inkscape:connector-curvature="0" /><ellipse
       style="opacity:1;fill:none;fill-opacity:1;stroke:#ff0000;stroke-width:4;stroke-miterlimit:4;stroke-dasharray:none;stroke-dashoffset:0;stroke-opacity:1"
       id="path10996"
       cx="48.604881"
       cy="-349.59836"
       transform="scale(1,-1)"
       rx="44.145718"
       ry="14.269324" /><text
       xml:space="preserve"
       style="font-style:normal;font-weight:normal;font-size:30px;line-height:125%;font-family:sans-serif;letter-spacing:0px;word-spacing:0px;fill:#ff0000;fill-opacity:1;stroke:none;stroke-width:1px;stroke-linecap:butt;stroke-linejoin:miter;stroke-opacity:1"
       x="97.209763"
       y="-339.78821"
       id="text10998"
       sodipodi:linespacing="125%"
       transform="scale(1,-1)"><tspan
         sodipodi:role="line"
         x="97.209763"
         y="-339.78821"
         id="tspan11008"
         style="font-size:20px;fill:#ff0000;fill-opacity:1">section numbers in margin</tspan></text>
</g></svg>